<?xml version="1.0" encoding="UTF-8" standalone="no"?>
<!DOCTYPE svg PUBLIC "-//W3C//DTD SVG 1.1//EN"
 "http://www.w3.org/Graphics/SVG/1.1/DTD/svg11.dtd">
<!-- Generated by graphviz version 2.38.0 (20140413.2041)
 -->
<!-- Title: G Pages: 1 -->
<svg width="377pt" height="479pt"
 viewBox="0.00 0.00 377.29 479.00" xmlns="http://www.w3.org/2000/svg" xmlns:xlink="http://www.w3.org/1999/xlink">
<g id="graph0" class="graph" transform="scale(1 1) rotate(0) translate(4 475)">
<title>G</title>
<polygon fill="white" stroke="none" points="-4,4 -4,-475 373.287,-475 373.287,4 -4,4"/>
<!-- JSON client (e.g. web UI) -->
<g id="node1" class="node"><title>JSON client (e.g. web UI)</title>
<ellipse fill="none" stroke="black" cx="265.296" cy="-453" rx="103.982" ry="18"/>
<text text-anchor="middle" x="265.296" y="-449.3" font-family="Times,serif" font-size="14.00">JSON client (e.g. web UI)</text>
</g>
<!-- inputs -->
<g id="node2" class="node"><title>inputs</title>
<ellipse fill="none" stroke="black" cx="157.296" cy="-366" rx="32.4942" ry="18"/>
<text text-anchor="middle" x="157.296" y="-362.3" font-family="Times,serif" font-size="14.00">inputs</text>
</g>
<!-- JSON client (e.g. web UI)&#45;&gt;inputs -->
<g id="edge1" class="edge"><title>JSON client (e.g. web UI)&#45;&gt;inputs</title>
<path fill="none" stroke="black" d="M243.959,-435.207C226.58,-421.529 201.972,-402.161 183.416,-387.557"/>
<polygon fill="black" stroke="black" points="185.386,-384.654 175.364,-381.22 181.057,-390.155 185.386,-384.654"/>
<text text-anchor="middle" x="242.796" y="-405.8" font-family="Times,serif" font-size="14.00">produces</text>
</g>
<!-- jobson -->
<g id="node3" class="node"><title>jobson</title>
<polygon fill="black" stroke="black" points="184.296,-297 130.296,-297 130.296,-261 184.296,-261 184.296,-297"/>
<text text-anchor="middle" x="157.296" y="-275.3" font-family="Times,serif" font-size="14.00" fill="white">jobson</text>
</g>
<!-- inputs&#45;&gt;jobson -->
<g id="edge2" class="edge"><title>inputs&#45;&gt;jobson</title>
<path fill="none" stroke="black" d="M157.296,-347.799C157.296,-336.163 157.296,-320.548 157.296,-307.237"/>
<polygon fill="black" stroke="black" points="160.797,-307.175 157.296,-297.175 153.797,-307.175 160.797,-307.175"/>
<text text-anchor="middle" x="188.796" y="-318.8" font-family="Times,serif" font-size="14.00">provided to</text>
</g>
<!-- job spec -->
<g id="node4" class="node"><title>job spec</title>
<ellipse fill="none" stroke="black" cx="40.2964" cy="-192" rx="40.0939" ry="18"/>
<text text-anchor="middle" x="40.2964" y="-188.3" font-family="Times,serif" font-size="14.00">job spec</text>
</g>
<!-- inputs&#45;&gt;job spec -->
<g id="edge3" class="edge"><title>inputs&#45;&gt;job spec</title>
<path fill="none" stroke="black" d="M130.564,-355.659C105.564,-345.411 69.4379,-326.398 51.2964,-297 37.1208,-274.029 35.7002,-242.662 37.0007,-220.399"/>
<polygon fill="black" stroke="black" points="40.5016,-220.527 37.8137,-210.278 33.5241,-219.966 40.5016,-220.527"/>
<text text-anchor="middle" x="86.2964" y="-275.3" font-family="Times,serif" font-size="14.00">described by</text>
</g>
<!-- jobson&#45;&gt;job spec -->
<g id="edge7" class="edge"><title>jobson&#45;&gt;job spec</title>
<path fill="none" stroke="black" d="M130.26,-267.807C107.201,-258.96 77.042,-246.965 72.2964,-243 64.3976,-236.4 57.7913,-227.34 52.6714,-218.743"/>
<polygon fill="black" stroke="black" points="55.5996,-216.805 47.7083,-209.735 49.4687,-220.183 55.5996,-216.805"/>
<text text-anchor="middle" x="84.2964" y="-231.8" font-family="Times,serif" font-size="14.00">uses</text>
</g>
<!-- subprocess (e.g. python) -->
<g id="node5" class="node"><title>subprocess (e.g. python)</title>
<ellipse fill="none" stroke="black" cx="235.296" cy="-105" rx="97.4827" ry="18"/>
<text text-anchor="middle" x="235.296" y="-101.3" font-family="Times,serif" font-size="14.00">subprocess (e.g. python)</text>
</g>
<!-- jobson&#45;&gt;subprocess (e.g. python) -->
<g id="edge4" class="edge"><title>jobson&#45;&gt;subprocess (e.g. python)</title>
<path fill="none" stroke="black" d="M156.717,-260.903C156.657,-239.531 158.783,-202.318 172.296,-174 180.332,-157.161 194.011,-141.627 206.573,-129.67"/>
<polygon fill="black" stroke="black" points="209.17,-132.038 214.19,-122.708 204.448,-126.871 209.17,-132.038"/>
<text text-anchor="middle" x="228.296" y="-188.3" font-family="Times,serif" font-size="14.00">launches + manages</text>
</g>
<!-- job -->
<g id="node7" class="node"><title>job</title>
<ellipse fill="none" stroke="black" cx="320.296" cy="-192" rx="27" ry="18"/>
<text text-anchor="middle" x="320.296" y="-188.3" font-family="Times,serif" font-size="14.00">job</text>
</g>
<!-- jobson&#45;&gt;job -->
<g id="edge8" class="edge"><title>jobson&#45;&gt;job</title>
<path fill="none" stroke="black" d="M169.018,-260.685C177.337,-249.711 189.454,-236.107 203.296,-228 233.25,-210.458 246.269,-220.682 279.296,-210 282.449,-208.98 285.699,-207.824 288.926,-206.605"/>
<polygon fill="black" stroke="black" points="290.41,-209.781 298.41,-202.836 287.825,-203.276 290.41,-209.781"/>
<text text-anchor="middle" x="253.796" y="-231.8" font-family="Times,serif" font-size="14.00">creates + writes to</text>
</g>
<!-- stderr / stdout / files / exit code -->
<g id="node6" class="node"><title>stderr / stdout / files / exit code</title>
<ellipse fill="none" stroke="black" cx="149.296" cy="-18" rx="121.578" ry="18"/>
<text text-anchor="middle" x="149.296" y="-14.3" font-family="Times,serif" font-size="14.00">stderr / stdout / files / exit code</text>
</g>
<!-- subprocess (e.g. python)&#45;&gt;stderr / stdout / files / exit code -->
<g id="edge5" class="edge"><title>subprocess (e.g. python)&#45;&gt;stderr / stdout / files / exit code</title>
<path fill="none" stroke="black" d="M218.306,-87.2067C205.667,-74.7151 188.227,-57.4775 174.041,-43.457"/>
<polygon fill="black" stroke="black" points="176.119,-40.5896 166.546,-36.0493 171.198,-45.5683 176.119,-40.5896"/>
<text text-anchor="middle" x="215.296" y="-57.8" font-family="Times,serif" font-size="14.00">writes</text>
</g>
<!-- stderr / stdout / files / exit code&#45;&gt;jobson -->
<g id="edge6" class="edge"><title>stderr / stdout / files / exit code&#45;&gt;jobson</title>
<path fill="none" stroke="black" d="M142.81,-36.0257C138.002,-49.6006 131.857,-69.2173 129.296,-87 120.883,-145.421 137.298,-213.856 148.361,-250.878"/>
<polygon fill="black" stroke="black" points="145.156,-252.362 151.452,-260.883 151.844,-250.295 145.156,-252.362"/>
<text text-anchor="middle" x="149.796" y="-144.8" font-family="Times,serif" font-size="14.00">read by</text>
</g>
<!-- job&#45;&gt;JSON client (e.g. web UI) -->
<g id="edge9" class="edge"><title>job&#45;&gt;JSON client (e.g. web UI)</title>
<path fill="none" stroke="black" d="M316.674,-210.056C307.336,-254.031 282.383,-371.537 271.045,-424.929"/>
<polygon fill="black" stroke="black" points="267.559,-424.497 268.905,-435.006 274.406,-425.951 267.559,-424.497"/>
<text text-anchor="middle" x="330.796" y="-318.8" font-family="Times,serif" font-size="14.00">consumed by</text>
</g>
<!-- job&#45;&gt;subprocess (e.g. python) -->
<g id="edge10" class="edge"><title>job&#45;&gt;subprocess (e.g. python)</title>
<path fill="none" stroke="black" d="M305.877,-176.581C293.212,-163.916 274.526,-145.229 259.561,-130.264"/>
<polygon fill="black" stroke="black" points="261.672,-127.426 252.126,-122.83 256.722,-132.376 261.672,-127.426"/>
<text text-anchor="middle" x="322.796" y="-144.8" font-family="Times,serif" font-size="14.00">encapsulates a</text>
</g>
</g>
</svg>
