<?xml version="1.0" encoding="UTF-8" standalone="no"?> <!DOCTYPE svg PUBLIC "-//W3C//DTD SVG 1.1//EN" "http://www.w3.org/Graphics/SVG/1.1/DTD/svg11.dtd"> <!-- Generated by graphviz version 2.40.1 (20161225.0304) --> <!-- Title: G Pages: 1 --> <svg width="352pt" height="397pt" viewBox="0.00 0.00 352.00 397.00" xmlns="http://www.w3.org/2000/svg" xmlns:xlink="http://www.w3.org/1999/xlink"> <g id="graph0" class="graph" transform="scale(1 1) rotate(0) translate(4 393)"> <title>G</title> <polygon fill="#ffffff" stroke="transparent" points="-4,4 -4,-393 348,-393 348,4 -4,4"/> <g id="clust1" class="cluster"> <title>cluster_clients</title> <polygon fill="none" stroke="#c0c0c0" points="95,-304.2 95,-381 165,-381 165,-304.2 95,-304.2"/> <text text-anchor="middle" x="130" y="-364.4" font-family="Times,serif" font-size="14.00" fill="#c0c0c0">clients</text> </g> <g id="clust2" class="cluster"> <title>cluster_webserver</title> <polygon fill="none" stroke="#c0c0c0" points="8,-8 8,-269.4 238,-269.4 238,-8 8,-8"/> <text text-anchor="middle" x="123" y="-252.8" font-family="Times,serif" font-size="14.00" fill="#c0c0c0">public webserver</text> </g> <g id="clust3" class="cluster"> <title>cluster_jobson</title> <polygon fill="none" stroke="#c0c0c0" points="246,-81 246,-157.8 336,-157.8 336,-81 246,-81"/> <text text-anchor="middle" x="291" y="-141.2" font-family="Times,serif" font-size="14.00" fill="#c0c0c0">backend</text> </g> <!-- user --> <g id="node1" class="node"> <title>user</title> <ellipse fill="none" stroke="#000000" cx="130" cy="-330.2" rx="27" ry="18"/> <text text-anchor="middle" x="130" y="-326" font-family="Times,serif" font-size="14.00" fill="#000000">UI</text> </g> <!-- server --> <g id="node2" class="node"> <title>server</title> <ellipse fill="#000000" stroke="#000000" cx="130" cy="-218.6" rx="100.1065" ry="18"/> <text text-anchor="middle" x="130" y="-214.4" font-family="Times,serif" font-size="14.00" fill="#ffffff">Webserver (e.g. nginx)</text> </g> <!-- user&#45;&#45;server --> <g id="edge1" class="edge"> <title>user&#45;&#45;server</title> <path fill="none" stroke="#000000" d="M130,-311.7715C130,-290.97 130,-257.3449 130,-236.6856"/> <text text-anchor="middle" x="187.5372" y="-281.6" font-family="Times,serif" font-size="14.00" fill="#000000">HTTP(S)/websocket</text> </g> <!-- config --> <g id="node3" class="node"> <title>config</title> <ellipse fill="none" stroke="#000000" cx="70" cy="-34" rx="54.4359" ry="18"/> <text text-anchor="middle" x="70" y="-29.8" font-family="Times,serif" font-size="14.00" fill="#000000">config.json</text> </g> <!-- server&#45;&#45;config --> <g id="edge2" class="edge"> <title>server&#45;&#45;config</title> <path fill="none" stroke="#000000" d="M109.067,-200.8591C97.5633,-189.7714 84.2875,-174.4631 77.5084,-157.8 63.146,-122.4971 65.0548,-76.8298 67.6006,-52.0065"/> <text text-anchor="middle" x="110.2458" y="-102.8" font-family="Times,serif" font-size="14.00" fill="#000000">/config.json</text> </g> <!-- uiAssets --> <g id="node4" class="node"> <title>uiAssets</title> <ellipse fill="none" stroke="#000000" cx="186" cy="-34" rx="43.5156" ry="18"/> <text text-anchor="middle" x="186" y="-29.8" font-family="Times,serif" font-size="14.00" fill="#000000">uiAssets</text> </g> <!-- server&#45;&#45;uiAssets --> <g id="edge3" class="edge"> <title>server&#45;&#45;uiAssets</title> <path fill="none" stroke="#000000" d="M135.4715,-200.5637C146.1774,-165.2724 169.7826,-87.4595 180.5063,-52.1095"/> <text text-anchor="middle" x="178.1953" y="-102.8" font-family="Times,serif" font-size="14.00" fill="#000000"> /*</text> </g> <!-- jobson --> <g id="node5" class="node"> <title>jobson</title> <ellipse fill="none" stroke="#000000" cx="291" cy="-107" rx="36.5805" ry="18"/> <text text-anchor="middle" x="291" y="-102.8" font-family="Times,serif" font-size="14.00" fill="#000000">jobson</text> </g> <!-- server&#45;&#45;jobson --> <g id="edge4" class="edge"> <title>server&#45;&#45;jobson</title> <path fill="none" stroke="#000000" d="M167.5332,-201.8208C190.1463,-190.8589 218.9335,-175.3493 242,-157.8 255.0677,-147.8579 267.8805,-134.4054 277.1249,-123.8415"/> <text text-anchor="middle" x="267.821" y="-170" font-family="Times,serif" font-size="14.00" fill="#000000">{apiPrefix}/*</text> </g> </g> </svg>
